<?xml version="1.0" standalone="no"?>
<!DOCTYPE svg PUBLIC "-//W3C//DTD SVG 20010904//EN"
 "http://www.w3.org/TR/2001/REC-SVG-20010904/DTD/svg10.dtd">
<svg version="1.0" xmlns="http://www.w3.org/2000/svg"
 width="727.000000pt" height="674.000000pt" viewBox="0 0 727.000000 674.000000"
 preserveAspectRatio="xMidYMid meet">

<g transform="translate(0.000000,674.000000) scale(0.100000,-0.100000)"
fill="#000000" stroke="none">
<path d="M3310 6553 c-105 -18 -393 -79 -475 -99 -193 -49 -425 -133 -425
-155 0 -4 15 -11 33 -15 17 -3 93 -29 167 -56 l135 -50 55 16 c30 9 109 25
175 37 274 47 501 113 552 161 81 76 -68 187 -217 161z"/>
<path d="M4033 6533 c-34 -6 -56 -47 -87 -158 -33 -117 -73 -223 -93 -246 -11
-13 -50 -17 -241 -22 -239 -7 -383 -22 -545 -58 l-98 -22 2 -44 c3 -40 -1 -47
-51 -99 -53 -54 -54 -56 -25 -50 86 16 141 10 198 -22 30 -17 62 -41 70 -52
14 -20 15 -20 49 14 60 60 191 85 445 86 125 0 154 -3 167 -16 13 -13 16 -43
16 -172 0 -130 3 -162 16 -182 24 -36 44 -50 71 -50 32 0 102 48 108 74 2 12
18 102 35 201 52 305 105 525 130 540 5 3 55 -1 112 -10 159 -23 481 -141 698
-257 267 -143 502 -332 686 -552 121 -145 121 -141 -54 -281 -75 -60 -183
-148 -239 -194 l-101 -85 86 -96 87 -95 108 90 c199 166 344 260 418 271 34 5
35 4 94 -88 209 -325 347 -709 401 -1113 21 -155 24 -544 5 -700 -66 -563
-243 -990 -558 -1350 -64 -73 -77 -73 -202 15 -84 59 -107 70 -141 70 -74 0
-130 -45 -130 -105 0 -23 17 -50 73 -115 41 -47 86 -91 100 -99 39 -21 34 -46
-24 -134 -86 -131 -214 -249 -391 -359 -183 -114 -597 -292 -662 -286 -25 2
-32 9 -40 38 -5 19 -42 134 -82 255 -77 233 -126 356 -168 424 -25 39 -29 41
-75 41 -53 0 -71 -13 -94 -70 -13 -33 -9 -52 59 -325 40 -159 73 -284 73 -277
1 7 14 12 31 12 l30 0 0 -225 0 -225 -29 0 c-24 0 -42 16 -112 99 -46 55 -87
100 -91 100 -5 1 -8 -55 -8 -122 l0 -124 108 18 c59 10 146 28 195 40 l87 21
0 104 0 104 -60 0 -60 0 0 30 0 30 150 0 150 0 0 -30 0 -30 -60 0 -60 0 0 -96
c0 -108 -12 -100 95 -64 l50 17 3 101 3 102 29 0 c30 0 30 0 30 -60 l0 -60 74
0 c103 0 106 2 106 66 0 53 0 54 30 54 28 0 30 -2 30 -40 l0 -40 73 36 c266
134 606 365 770 523 231 223 474 552 634 857 193 370 295 735 324 1164 9 147
9 176 -4 215 -14 39 -14 45 -1 45 17 0 17 9 3 200 -43 609 -253 1156 -643
1674 -184 244 -271 329 -540 530 -474 353 -903 564 -1261 619 -106 17 -245 26
-282 20z"/>
<path d="M4411 5916 c-31 -23 -41 -45 -106 -229 -40 -113 -76 -210 -79 -216
-9 -14 17 -14 66 -1 28 8 45 7 77 -6 34 -13 42 -23 56 -64 14 -43 14 -54 1
-111 -8 -35 -18 -73 -21 -84 -5 -15 -4 -16 3 -6 15 20 134 9 198 -18 l52 -23
40 21 c47 24 72 55 72 91 0 19 -24 46 -105 118 -57 51 -116 107 -129 125 -24
32 -25 33 -9 81 l16 48 72 -4 c82 -5 161 -38 267 -109 98 -65 228 -173 228
-187 0 -8 -43 -64 -95 -125 -52 -61 -95 -113 -95 -116 0 -3 57 -33 126 -66
l126 -61 69 81 c38 44 91 111 116 148 42 60 48 75 51 132 3 51 0 73 -17 109
-65 134 -292 280 -671 432 -177 71 -252 81 -309 40z"/>
<path d="M1668 5822 c-31 -13 -247 -212 -335 -310 -413 -454 -639 -931 -733
-1547 -27 -175 -38 -599 -21 -778 25 -260 90 -554 185 -836 59 -176 117 -283
297 -551 264 -392 604 -741 944 -968 92 -61 284 -172 297 -172 5 0 8 16 8 35
0 32 2 35 30 35 30 0 30 -1 30 -54 l0 -54 140 -56 c77 -31 145 -56 151 -56 5
0 33 50 61 110 28 61 54 110 57 110 3 -1 40 -69 81 -153 l75 -152 3 138 c2
128 1 139 -20 167 l-22 30 98 347 c53 192 99 358 102 369 4 15 -4 33 -26 58
-31 35 -35 36 -99 36 l-67 0 -28 -87 c-41 -126 -153 -418 -188 -488 -17 -33
-41 -75 -55 -92 -22 -30 -29 -33 -78 -33 -63 0 -136 25 -275 95 -71 35 -144
87 -285 200 -394 316 -651 580 -742 760 -14 27 -38 63 -53 78 -16 16 -42 67
-59 114 -17 47 -47 107 -67 134 -19 27 -46 79 -58 116 -13 37 -38 109 -55 158
-18 50 -47 167 -65 260 -19 94 -41 208 -51 255 -9 47 -22 139 -28 205 -20 229
24 825 62 817 7 -1 101 6 209 17 108 11 251 25 316 30 202 18 196 28 -133 207
-146 79 -269 148 -275 154 -6 6 -2 28 14 67 12 32 26 61 29 65 4 4 132 -35
284 -87 153 -52 289 -95 303 -95 46 0 27 41 -94 203 -174 233 -262 355 -268
370 -5 15 90 147 196 272 37 44 134 145 214 223 l147 144 -58 99 c-58 98 -63
104 -95 91z m-258 -1102 c99 -134 178 -245 176 -247 -4 -5 -589 196 -598 206
-10 8 220 293 233 289 6 -2 91 -113 189 -248z m-135 -453 c88 -47 168 -92 178
-99 15 -12 -24 -17 -258 -37 -152 -13 -278 -21 -280 -19 -3 3 9 75 27 161 l31
157 71 -39 c39 -21 143 -77 231 -124z"/>
<path d="M2834 5162 l-121 -56 13 -25 c8 -15 63 -129 124 -255 76 -159 108
-236 104 -250 -4 -11 -59 -72 -123 -135 -188 -188 -302 -360 -336 -506 -21
-96 -72 -257 -99 -319 -28 -63 -81 -126 -107 -126 -10 0 -37 18 -60 40 l-41
39 6 78 c18 202 102 415 270 680 39 62 77 124 85 136 8 13 11 34 8 48 -11 42
-127 209 -198 284 -78 82 -147 123 -218 132 -48 5 -53 4 -105 -36 -85 -65
-199 -191 -229 -251 -40 -79 -35 -131 16 -187 16 -18 31 -23 73 -23 52 0 52 0
130 80 l77 80 53 0 c113 0 103 -64 -70 -446 -61 -135 -86 -202 -86 -230 0 -21
-7 -80 -15 -130 -30 -188 -79 -291 -150 -314 -32 -10 -39 -10 -57 7 -11 10
-29 35 -40 56 -16 33 -17 43 -7 71 9 25 9 41 0 66 -6 18 -11 48 -11 66 0 44
-36 68 -205 134 -71 28 -144 57 -161 65 l-31 13 -2 -149 -2 -149 28 -10 c47
-17 57 -25 81 -67 31 -57 60 -176 79 -330 12 -99 14 -139 6 -155 -6 -13 -14
-30 -16 -40 -3 -9 -19 -19 -36 -23 -28 -6 -31 -10 -31 -43 0 -53 20 -165 31
-176 5 -6 9 -18 9 -28 0 -25 15 -23 112 13 98 36 164 72 178 99 5 10 10 86 10
169 l0 151 74 0 73 0 48 -127 c121 -326 260 -602 386 -770 21 -29 39 -59 39
-66 0 -23 -77 -87 -104 -87 -16 0 -57 26 -112 70 -73 59 -92 70 -124 70 -28 0
-46 -8 -69 -29 -27 -25 -31 -36 -31 -81 0 -59 -29 -21 312 -402 l158 -176 -28
-49 c-24 -44 -30 -49 -52 -43 -91 25 -281 168 -574 434 -69 62 -79 68 -108 62
-86 -17 -104 -99 -42 -200 138 -230 360 -423 669 -581 139 -71 159 -72 218 -5
24 28 66 88 92 132 52 88 134 272 135 301 0 30 -26 71 -110 176 -44 55 -80
104 -80 109 0 20 68 82 89 82 12 0 117 -38 233 -85 198 -80 215 -85 282 -84
l71 0 58 119 c63 132 135 221 192 240 26 9 41 8 70 -5 114 -47 260 18 300 133
24 71 30 156 14 204 -12 38 -12 44 12 87 21 38 40 54 105 90 130 71 215 131
299 212 117 113 175 220 188 349 l4 45 -86 -7 c-47 -3 -102 -7 -121 -7 -33 -1
-38 -5 -62 -53 -38 -78 -109 -168 -194 -246 -71 -66 -78 -70 -133 -75 -72 -6
-126 -33 -175 -87 -61 -68 -86 -145 -101 -312 l-7 -68 -155 0 -156 0 -37 -39
c-21 -22 -69 -90 -106 -151 -38 -62 -74 -115 -81 -117 -7 -3 -42 0 -78 7 -61
12 -72 18 -173 105 -136 117 -279 266 -364 379 -119 159 -198 350 -198 479 l0
58 63 29 c35 16 115 43 178 61 63 18 117 37 121 42 3 6 9 34 13 64 11 89 80
352 116 443 51 128 108 204 244 326 159 142 250 231 281 275 l24 36 -156 369
c-86 203 -157 369 -158 370 0 1 -55 -24 -122 -54z"/>
<path d="M3708 4677 c4 -142 5 -147 31 -147 11 0 35 -13 53 -28 27 -23 50 -31
121 -41 l87 -13 55 42 c63 49 66 61 30 138 -22 47 -27 52 -57 52 -48 1 -201
36 -240 56 -18 9 -44 27 -59 40 l-25 24 4 -123z"/>
<path d="M5888 4655 c-21 -14 -41 -37 -44 -50 -3 -14 6 -87 20 -163 15 -75 29
-160 32 -188 l6 -50 -43 -16 c-24 -9 -70 -22 -101 -28 -32 -6 -67 -19 -79 -29
l-21 -17 38 -55 c22 -31 57 -92 78 -137 l39 -80 28 38 c43 59 72 75 109 60 38
-16 63 -57 86 -140 28 -101 26 -451 -4 -665 -64 -454 -153 -685 -264 -685 -16
0 -73 13 -126 29 -91 28 -137 36 -189 32 -19 -1 -117 -73 -225 -165 l-40 -34
59 -39 c65 -42 107 -108 97 -150 -8 -30 7 -29 36 2 14 14 48 44 76 66 l52 40
48 -17 c27 -9 97 -35 155 -59 100 -41 109 -43 150 -32 163 41 304 379 398 952
65 395 65 486 7 790 -124 645 -240 886 -378 790z"/>
<path d="M3842 4210 c-57 -101 -216 -155 -346 -119 -25 7 -61 32 -98 66 l-58
56 -56 -34 c-159 -97 -288 -227 -349 -354 -50 -105 -57 -155 -53 -370 l4 -190
52 -153 c28 -84 52 -162 52 -173 0 -25 -34 -75 -61 -90 -17 -9 -36 4 -137 90
-74 65 -125 101 -140 101 -29 0 -71 -22 -96 -49 -19 -21 -19 -23 -2 -79 31
-99 105 -240 157 -297 63 -68 135 -105 204 -105 50 0 54 2 128 70 93 87 192
208 223 275 42 88 38 104 -100 407 -57 127 -66 154 -66 205 1 218 105 382 302
477 93 44 235 86 292 86 55 0 169 -29 226 -57 80 -39 169 -133 219 -233 22
-45 41 -89 41 -96 0 -8 6 -14 14 -14 19 0 310 31 312 33 1 1 -66 95 -150 208
l-151 207 -165 83 c-91 46 -167 85 -170 86 -3 2 -15 -15 -28 -37z"/>
<path d="M4652 4012 l-53 -37 5 -65 c3 -36 14 -94 26 -129 15 -45 18 -67 11
-74 -6 -6 -11 -17 -11 -25 0 -12 19 -14 118 -8 64 4 138 9 164 13 l48 6 -27
48 c-25 46 -28 49 -67 49 -31 0 -50 7 -75 28 -28 23 -33 34 -33 69 0 23 8 55
16 71 15 28 14 30 -17 61 -18 17 -37 31 -42 31 -6 -1 -34 -18 -63 -38z"/>
<path d="M4748 3190 c-53 -28 -68 -55 -68 -120 l0 -55 108 -50 c113 -53 172
-96 172 -125 0 -35 -91 -231 -126 -269 -1 -2 -32 21 -67 52 -75 63 -234 157
-266 157 -35 0 -88 -27 -101 -51 -10 -17 -10 -31 0 -63 9 -32 39 -69 133 -163
l121 -122 -20 -22 c-38 -43 -138 -109 -165 -109 -71 0 -98 30 -149 165 -43
111 -50 125 -82 141 -66 34 -122 5 -162 -84 l-18 -40 31 -78 c31 -79 71 -222
71 -255 0 -13 -20 -22 -82 -39 -182 -49 -330 -110 -380 -158 l-28 -26 0 -211
c0 -184 11 -412 24 -511 4 -29 1 -33 -54 -59 -64 -31 -61 -31 -122 24 l-28 25
0 157 0 158 -43 26 c-76 44 -115 28 -156 -65 -46 -104 -84 -385 -62 -453 16
-47 77 -99 144 -122 76 -27 330 -33 417 -11 142 37 162 71 149 256 -5 69 -11
233 -15 365 l-7 240 26 31 c15 17 49 41 75 52 53 23 201 52 261 52 l36 0 73
-140 73 -140 29 15 c45 23 78 20 86 -9 8 -32 1 -42 -41 -64 -25 -13 -32 -21
-25 -31 7 -12 15 -13 48 -3 57 17 71 15 84 -13 9 -20 8 -28 -6 -44 -10 -11
-31 -23 -46 -26 -20 -4 -27 -11 -23 -21 7 -20 33 -17 68 6 42 28 73 26 87 -5
10 -22 8 -29 -11 -49 -13 -14 -36 -30 -52 -36 l-28 -12 30 -44 c36 -53 62 -71
109 -76 33 -3 35 -2 41 37 4 22 10 86 14 141 l7 101 -38 49 c-42 56 -115 204
-167 344 -19 52 -42 111 -51 132 l-15 36 37 34 c56 50 256 179 281 181 12 1
21 8 21 17 0 25 22 285 25 288 1 1 34 -16 73 -38 47 -27 78 -39 91 -35 35 11
170 388 179 498 4 60 2 70 -18 92 -30 31 -138 83 -290 138 -165 60 -168 60
-212 37z m159 -772 c-3 -8 -6 -5 -6 6 -1 11 2 17 5 13 3 -3 4 -12 1 -19z m-10
-120 c-3 -8 -6 -5 -6 6 -1 11 2 17 5 13 3 -3 4 -12 1 -19z m-80 -960 c-3 -8
-6 -5 -6 6 -1 11 2 17 5 13 3 -3 4 -12 1 -19z m-10 -120 c-3 -8 -6 -5 -6 6 -1
11 2 17 5 13 3 -3 4 -12 1 -19z"/>
<path d="M1929 2591 c-48 -16 -107 -37 -130 -49 -142 -66 -181 -75 -197 -46
-8 15 -21 14 -138 -14 -120 -29 -130 -30 -141 -14 -7 9 -19 26 -28 37 -16 20
-16 20 -5 -2 21 -43 114 -159 192 -239 79 -80 81 -82 122 -77 77 10 158 44
256 108 104 67 290 211 290 224 0 7 -123 101 -131 101 -2 -1 -43 -13 -90 -29z"/>
<path d="M4866 1884 c-47 -33 -47 -35 34 -238 33 -82 60 -159 60 -172 0 -29
-27 -44 -79 -44 -23 0 -41 -5 -41 -11 0 -5 16 -40 35 -76 26 -49 35 -78 35
-115 0 -47 1 -48 31 -48 62 0 281 133 328 199 69 97 15 218 -187 419 -127 127
-145 134 -216 86z"/>
<path d="M4177 660 l-47 -17 51 -59 c28 -32 53 -61 55 -63 2 -2 4 32 4 77 0
45 -3 81 -7 81 -5 -1 -29 -9 -56 -19z"/>
<path d="M3000 580 l0 -91 88 3 c85 3 87 3 87 28 0 23 -4 25 -47 28 -46 3 -48
5 -48 32 0 27 3 29 47 32 35 2 49 7 51 19 2 13 -10 19 -61 28 -35 6 -76 11
-90 11 l-27 0 0 -90z"/>
<path d="M3231 610 c-7 -21 -7 -39 1 -60 11 -34 -2 -79 -30 -102 -9 -8 -57
-15 -126 -18 l-111 -5 140 -22 c77 -12 164 -25 193 -28 l52 -6 0 102 c0 94 -2
105 -26 136 -34 45 -77 46 -93 3z"/>
<path d="M3958 623 l-28 -4 0 -95 0 -94 -30 0 -30 0 0 95 c0 105 -9 118 -48
66 -12 -16 -35 -32 -52 -36 -16 -4 -30 -9 -30 -12 0 -2 21 -42 47 -89 l47 -84
67 0 c104 0 99 -7 99 136 0 68 -3 123 -7 123 -5 -1 -20 -4 -35 -6z"/>
<path d="M3426 595 c-12 -18 -16 -49 -16 -123 l0 -99 46 -7 c79 -10 163 -7
201 9 19 8 37 15 39 15 2 0 4 -7 4 -15 0 -11 11 -15 40 -15 22 0 40 2 40 4 0
3 -29 58 -65 122 -47 85 -61 120 -52 126 7 4 -4 8 -25 8 l-38 0 0 -95 0 -95
-30 0 -30 0 0 95 0 95 -49 0 c-41 0 -51 -4 -65 -25z"/>
<path d="M2752 548 c-12 -29 -19 -55 -14 -59 11 -10 114 -38 110 -30 -34 80
-64 141 -68 141 -3 0 -16 -23 -28 -52z"/>
</g>
</svg>
